<svg width="914" height="400" fill="none" xmlns="http://www.w3.org/2000/svg">
  <path fill="#fff" d="M0 0h914v400H0z"/>
  <path d="M426.689 194.272c0 .784.644 1.428 1.428 1.428.784 0 1.428-.644 1.428-1.428v-1.26h7.056c0 2.772-6.944 7.084-6.944 14.7 0 .868.7 1.512 1.568 1.512.868 0 1.568-.644 1.568-1.512 0-7.448 7-10.276 7-16.128 0-.784-.644-1.428-1.428-1.428h-10.248c-.784 0-1.428.644-1.428 1.428v2.688zm24.693 11.424c0-.7-.56-1.26-1.26-1.26s-1.26.56-1.26 1.26v.728h-3.864l5.908-7.924c.168-.224.308-.476.308-.868 0-.728-.616-1.344-1.344-1.344h-7.196c-.672 0-1.26.504-1.26 1.176v1.848c0 .7.56 1.26 1.26 1.26.728 0 1.26-.56 1.26-1.26v-.504h3.472l-6.02 8.064c-.168.224-.308.448-.308.84 0 .7.588 1.288 1.288 1.288h7.728c.7 0 1.288-.588 1.288-1.288v-2.016zm8.026 3.668c2.296 0 3.836-1.008 4.48-1.596.336-.308.476-.672.476-1.036 0-.756-.588-1.344-1.344-1.344-.252 0-.532.056-.84.28-.644.476-1.484 1.12-2.772 1.12-1.96 0-3.024-1.484-3.024-4.172 0-2.632 1.064-4.144 3.024-4.144 1.4 0 2.128.728 2.492 1.092.252.252.588.476 1.036.476.756 0 1.344-.588 1.344-1.344 0-.336-.084-.56-.308-.868-.476-.644-1.988-1.932-4.564-1.932-3.78 0-6.076 2.156-6.076 6.72s2.296 6.748 6.076 6.748zm18.343-.364c.7 0 1.26-.56 1.26-1.26s-.56-1.26-1.26-1.26h-.672v-5.908c0-2.968-2.072-4.676-5.544-4.676-2.408 0-3.808.924-4.592 1.792-.252.28-.364.616-.364.924 0 .728.588 1.316 1.316 1.316.336 0 .56-.084.84-.28.7-.504 1.568-1.064 2.8-1.064 1.624 0 2.548.84 2.548 2.1v.504h-3.668c-2.436 0-4.536 1.344-4.536 3.948 0 2.52 1.82 4.228 4.564 4.228 1.68 0 2.912-.42 3.668-1.624 0 .7.616 1.26 1.372 1.26h2.268zm-8.848-3.864c0-1.008.672-1.596 1.904-1.596h3.276v.784c0 1.568-1.372 2.52-2.856 2.52-1.568 0-2.324-.644-2.324-1.708zm12.735-8.848h-.644c-.7 0-1.26.56-1.26 1.26s.56 1.26 1.26 1.26h.644v6.608c0 2.212 1.624 3.808 4.256 3.808.728 0 1.316-.588 1.316-1.316 0-.728-.588-1.316-1.316-1.316-.616 0-1.288-.364-1.288-1.008v-6.776h1.26c.7 0 1.26-.56 1.26-1.26s-.56-1.26-1.26-1.26h-1.26v-2.352c0-.812-.672-1.484-1.484-1.484-.812 0-1.484.672-1.484 1.484v2.352z" fill="#333"/>
</svg>
